<svg width="120" height="120" viewBox="0 0 120 120" fill="none" xmlns="http://www.w3.org/2000/svg">
<path d="M83.7107 54.7411H77.1312C75.9087 54.7411 74.8262 55.5309 74.453 56.695L68.3218 75.8212C67.74 77.6363 69.094 79.4923 71.0001 79.4923H74.3581C75.4315 79.4923 76.2858 80.3917 76.2306 81.4637L75.191 101.654C75.1651 102.158 75.8443 102.342 76.0757 101.894L90.5009 73.946C91.4671 72.0741 90.1082 69.8435 88.0017 69.8435H85.1937C83.915 69.8435 83.0114 68.5917 83.4141 67.378L86.3801 58.4393C86.9842 56.6189 85.6288 54.7411 83.7107 54.7411Z" fill="#FFD400"/>
<path d="M92.044 77.7293L93.9755 73.9872C95.6831 70.679 93.2816 66.737 89.5588 66.737H86.8999L89.7424 58.1704C90.8099 54.9531 88.4146 51.6346 85.0249 51.6346H76.4392C74.2786 51.6346 72.3655 53.0303 71.706 55.0878L64.9667 76.1111C64.7927 76.6538 64.7166 77.1986 64.7267 77.7293L31.1095 77.7293C18.0703 77.7293 7.5 67.1589 7.5 54.1198C7.5 41.0806 18.0703 30.5103 31.1095 30.5103C33.9368 30.5103 36.648 31.0073 39.1605 31.9187C44.1178 19.7933 56.0316 11.25 69.9408 11.25C88.2986 11.25 103.18 26.1319 103.18 44.4896C103.18 45.2983 103.152 46.1003 103.095 46.8945C108.646 49.4507 112.5 55.063 112.5 61.5754C112.5 70.4969 105.268 77.7293 96.3461 77.7293H92.044Z" fill="white"/>
<path d="M64.1561 103.09L60.9319 96.3683L57.7073 103.091C57.3874 103.652 57.2042 104.303 57.2042 104.997C57.2042 107.094 58.8731 108.794 60.932 108.794C62.9908 108.794 64.6598 107.094 64.6598 104.997C64.6598 104.302 64.4764 103.651 64.1561 103.09Z" fill="#64D2FF"/>
<path d="M52.9732 90.6654L49.7485 83.9423L46.5242 90.6645C46.2041 91.2249 46.0207 91.8764 46.0207 92.5715C46.0207 94.6684 47.6897 96.3683 49.7485 96.3683C51.8073 96.3683 53.4763 94.6684 53.4763 92.5715C53.4763 91.8767 53.2931 91.2256 52.9732 90.6654Z" fill="#64D2FF"/>
<path d="M41.7897 103.091L38.5651 96.3683L35.3408 103.091C35.0207 103.651 34.8373 104.302 34.8373 104.997C34.8373 107.094 36.5063 108.794 38.5651 108.794C40.6239 108.794 42.2929 107.094 42.2929 104.997C42.2929 104.303 42.1096 103.651 41.7897 103.091Z" fill="#64D2FF"/>
<path d="M30.606 90.6648L27.3816 83.9423L24.157 90.6651C23.8371 91.2254 23.6538 91.8766 23.6538 92.5715C23.6538 94.6684 25.3228 96.3683 27.3816 96.3683C29.4404 96.3683 31.1094 94.6684 31.1094 92.5715C31.1094 91.8765 30.9261 91.2251 30.606 90.6648Z" fill="#64D2FF"/>
</svg>
